<mxfile host="app.diagrams.net" modified="2023-04-01T15:17:36.209Z" agent="Mozilla/5.0 (Windows NT 10.0; Win64; x64) AppleWebKit/537.36 (KHTML, like Gecko) Chrome/111.0.0.0 Safari/537.36" etag="hl1U8y1Z74ef2iMFom2P" version="21.1.2" type="device">
  <diagram name="Page-1" id="7stZ4st7olYAiR1sH1Dz">
    <mxGraphModel dx="2933" dy="2413" grid="0" gridSize="10" guides="1" tooltips="1" connect="1" arrows="1" fold="1" page="0" pageScale="1" pageWidth="827" pageHeight="1169" math="0" shadow="0">
      <root>
        <mxCell id="0" />
        <mxCell id="1" parent="0" />
        <mxCell id="h92_oG6zmkIHJl_vDyYq-19" value="login" style="swimlane;childLayout=stackLayout;resizeParent=1;resizeParentMax=0;startSize=20;html=1;fontSize=16;" parent="1" vertex="1">
          <mxGeometry x="20.000000000000455" y="-495" width="514" height="638" as="geometry" />
        </mxCell>
        <mxCell id="h92_oG6zmkIHJl_vDyYq-20" value="Admin" style="swimlane;startSize=20;html=1;fontSize=16;" parent="h92_oG6zmkIHJl_vDyYq-19" vertex="1">
          <mxGeometry y="20" width="252" height="618" as="geometry" />
        </mxCell>
        <mxCell id="h92_oG6zmkIHJl_vDyYq-23" value="" style="ellipse;html=1;shape=startState;fillColor=#000000;strokeColor=#ff0000;fontSize=16;" parent="h92_oG6zmkIHJl_vDyYq-20" vertex="1">
          <mxGeometry x="105.99999999999955" y="37" width="30" height="30" as="geometry" />
        </mxCell>
        <mxCell id="h92_oG6zmkIHJl_vDyYq-24" value="" style="edgeStyle=orthogonalEdgeStyle;html=1;verticalAlign=bottom;endArrow=open;endSize=8;strokeColor=#ff0000;rounded=0;fontSize=12;curved=1;" parent="h92_oG6zmkIHJl_vDyYq-20" source="h92_oG6zmkIHJl_vDyYq-23" edge="1">
          <mxGeometry relative="1" as="geometry">
            <mxPoint x="120.99999999999955" y="105" as="targetPoint" />
          </mxGeometry>
        </mxCell>
        <mxCell id="h92_oG6zmkIHJl_vDyYq-26" value="Buka Aplikasi" style="rounded=1;whiteSpace=wrap;html=1;arcSize=40;fontColor=#000000;fillColor=#ffffc0;strokeColor=#ff0000;fontSize=16;" parent="h92_oG6zmkIHJl_vDyYq-20" vertex="1">
          <mxGeometry x="60.999999999999545" y="104" width="120" height="40" as="geometry" />
        </mxCell>
        <mxCell id="h92_oG6zmkIHJl_vDyYq-30" value="Pilih menu login" style="rounded=1;whiteSpace=wrap;html=1;arcSize=40;fontColor=#000000;fillColor=#ffffc0;strokeColor=#ff0000;fontSize=16;" parent="h92_oG6zmkIHJl_vDyYq-20" vertex="1">
          <mxGeometry x="60.999999999999545" y="180" width="120" height="40" as="geometry" />
        </mxCell>
        <mxCell id="h92_oG6zmkIHJl_vDyYq-49" value="input email&amp;nbsp;&lt;br&gt;password" style="rounded=1;whiteSpace=wrap;html=1;arcSize=40;fontColor=#000000;fillColor=#ffffc0;strokeColor=#ff0000;fontSize=16;" parent="h92_oG6zmkIHJl_vDyYq-20" vertex="1">
          <mxGeometry x="65.99999999999955" y="298" width="120" height="40" as="geometry" />
        </mxCell>
        <mxCell id="h92_oG6zmkIHJl_vDyYq-21" value="sistem" style="swimlane;startSize=20;html=1;fontSize=16;" parent="h92_oG6zmkIHJl_vDyYq-19" vertex="1">
          <mxGeometry x="252" y="20" width="262" height="618" as="geometry" />
        </mxCell>
        <mxCell id="h92_oG6zmkIHJl_vDyYq-28" value="Menampilkan Halaman home" style="rounded=1;whiteSpace=wrap;html=1;arcSize=40;fontColor=#000000;fillColor=#ffffc0;strokeColor=#ff0000;fontSize=16;" parent="h92_oG6zmkIHJl_vDyYq-21" vertex="1">
          <mxGeometry x="70.99999999999955" y="104" width="120" height="40" as="geometry" />
        </mxCell>
        <mxCell id="h92_oG6zmkIHJl_vDyYq-37" value="" style="endArrow=open;endFill=1;endSize=12;html=1;rounded=0;fontSize=12;curved=1;fillColor=#ffe6cc;strokeColor=#e02d00;" parent="h92_oG6zmkIHJl_vDyYq-21" edge="1">
          <mxGeometry width="160" relative="1" as="geometry">
            <mxPoint x="-72.00000000000045" y="128" as="sourcePoint" />
            <mxPoint x="69.99999999999955" y="128" as="targetPoint" />
          </mxGeometry>
        </mxCell>
        <mxCell id="h92_oG6zmkIHJl_vDyYq-48" value="Menampilkan Halaman login" style="rounded=1;whiteSpace=wrap;html=1;arcSize=40;fontColor=#000000;fillColor=#ffffc0;strokeColor=#ff0000;fontSize=16;" parent="h92_oG6zmkIHJl_vDyYq-21" vertex="1">
          <mxGeometry x="70.99999999999955" y="225" width="120" height="40" as="geometry" />
        </mxCell>
        <mxCell id="h92_oG6zmkIHJl_vDyYq-53" value="validasi" style="rhombus;whiteSpace=wrap;html=1;fontSize=16;fillColor=#ffffc0;strokeColor=#ff0000;fontColor=#000000;rounded=1;arcSize=40;" parent="h92_oG6zmkIHJl_vDyYq-21" vertex="1">
          <mxGeometry x="90.99999999999955" y="338" width="80" height="80" as="geometry" />
        </mxCell>
        <mxCell id="h92_oG6zmkIHJl_vDyYq-55" value="" style="html=1;verticalAlign=bottom;endArrow=open;endSize=8;strokeColor=#ff0000;rounded=0;fontSize=12;exitX=0.911;exitY=0.508;exitDx=0;exitDy=0;entryX=1;entryY=0.5;entryDx=0;entryDy=0;exitPerimeter=0;" parent="h92_oG6zmkIHJl_vDyYq-21" source="h92_oG6zmkIHJl_vDyYq-53" target="h92_oG6zmkIHJl_vDyYq-48" edge="1">
          <mxGeometry relative="1" as="geometry">
            <mxPoint x="101" y="388" as="targetPoint" />
            <mxPoint x="-135" y="348" as="sourcePoint" />
            <Array as="points">
              <mxPoint x="208.99999999999955" y="379" />
              <mxPoint x="208.99999999999955" y="245" />
            </Array>
          </mxGeometry>
        </mxCell>
        <mxCell id="h92_oG6zmkIHJl_vDyYq-57" value="tidak" style="edgeLabel;html=1;align=center;verticalAlign=middle;resizable=0;points=[];fontSize=16;" parent="h92_oG6zmkIHJl_vDyYq-55" vertex="1" connectable="0">
          <mxGeometry x="-0.0612" y="-1" relative="1" as="geometry">
            <mxPoint as="offset" />
          </mxGeometry>
        </mxCell>
        <mxCell id="h92_oG6zmkIHJl_vDyYq-58" value="menampilkan halaman dashboard" style="rounded=1;whiteSpace=wrap;html=1;arcSize=40;fontColor=#000000;fillColor=#ffffc0;strokeColor=#ff0000;fontSize=16;" parent="h92_oG6zmkIHJl_vDyYq-21" vertex="1">
          <mxGeometry x="71" y="470" width="125" height="55" as="geometry" />
        </mxCell>
        <mxCell id="h92_oG6zmkIHJl_vDyYq-56" value="ya" style="endArrow=open;endFill=1;endSize=12;html=1;rounded=0;fontSize=12;curved=1;fillColor=#ffe6cc;strokeColor=#e02d00;exitX=0.501;exitY=0.901;exitDx=0;exitDy=0;exitPerimeter=0;" parent="h92_oG6zmkIHJl_vDyYq-21" source="h92_oG6zmkIHJl_vDyYq-53" target="h92_oG6zmkIHJl_vDyYq-58" edge="1">
          <mxGeometry width="160" relative="1" as="geometry">
            <mxPoint x="-80.00000000000045" y="138" as="sourcePoint" />
            <mxPoint x="130.99999999999955" y="449" as="targetPoint" />
          </mxGeometry>
        </mxCell>
        <mxCell id="h92_oG6zmkIHJl_vDyYq-61" value="" style="edgeStyle=orthogonalEdgeStyle;html=1;verticalAlign=bottom;endArrow=open;endSize=8;strokeColor=#ff0000;rounded=0;fontSize=12;curved=1;" parent="h92_oG6zmkIHJl_vDyYq-21" edge="1">
          <mxGeometry relative="1" as="geometry">
            <mxPoint x="133.17999999999955" y="563" as="targetPoint" />
            <mxPoint x="133.18" y="525" as="sourcePoint" />
          </mxGeometry>
        </mxCell>
        <mxCell id="h92_oG6zmkIHJl_vDyYq-62" value="" style="ellipse;html=1;shape=endState;fillColor=#000000;strokeColor=#ff0000;fontSize=16;" parent="h92_oG6zmkIHJl_vDyYq-21" vertex="1">
          <mxGeometry x="118.49999999999955" y="563" width="30" height="30" as="geometry" />
        </mxCell>
        <mxCell id="h92_oG6zmkIHJl_vDyYq-47" value="" style="html=1;verticalAlign=bottom;endArrow=open;endSize=8;strokeColor=#ff0000;rounded=0;fontSize=12;exitX=0.5;exitY=1;exitDx=0;exitDy=0;entryX=1;entryY=0.5;entryDx=0;entryDy=0;" parent="h92_oG6zmkIHJl_vDyYq-19" source="h92_oG6zmkIHJl_vDyYq-28" target="h92_oG6zmkIHJl_vDyYq-30" edge="1">
          <mxGeometry relative="1" as="geometry">
            <mxPoint x="130.99999999999955" y="310" as="targetPoint" />
            <mxPoint x="131" y="250" as="sourcePoint" />
            <Array as="points">
              <mxPoint x="382.99999999999955" y="216" />
            </Array>
          </mxGeometry>
        </mxCell>
        <mxCell id="h92_oG6zmkIHJl_vDyYq-31" value="" style="html=1;verticalAlign=bottom;endArrow=open;endSize=8;strokeColor=#ff0000;rounded=0;fontSize=12;exitX=0.5;exitY=1;exitDx=0;exitDy=0;entryX=0;entryY=0.5;entryDx=0;entryDy=0;" parent="h92_oG6zmkIHJl_vDyYq-19" source="h92_oG6zmkIHJl_vDyYq-30" target="h92_oG6zmkIHJl_vDyYq-48" edge="1">
          <mxGeometry relative="1" as="geometry">
            <mxPoint x="325.99999999999955" y="267" as="targetPoint" />
            <Array as="points">
              <mxPoint x="120.99999999999955" y="269" />
            </Array>
          </mxGeometry>
        </mxCell>
        <mxCell id="h92_oG6zmkIHJl_vDyYq-51" value="" style="html=1;verticalAlign=bottom;endArrow=open;endSize=8;strokeColor=#ff0000;rounded=0;fontSize=12;exitX=0.5;exitY=1;exitDx=0;exitDy=0;entryX=1;entryY=0.5;entryDx=0;entryDy=0;" parent="h92_oG6zmkIHJl_vDyYq-19" source="h92_oG6zmkIHJl_vDyYq-48" target="h92_oG6zmkIHJl_vDyYq-49" edge="1">
          <mxGeometry relative="1" as="geometry">
            <mxPoint x="352" y="275" as="targetPoint" />
            <mxPoint x="131" y="250" as="sourcePoint" />
            <Array as="points">
              <mxPoint x="385.99999999999955" y="338" />
            </Array>
          </mxGeometry>
        </mxCell>
        <mxCell id="h92_oG6zmkIHJl_vDyYq-52" value="" style="html=1;verticalAlign=bottom;endArrow=open;endSize=8;strokeColor=#ff0000;rounded=0;fontSize=12;exitX=0.5;exitY=1;exitDx=0;exitDy=0;entryX=0.067;entryY=0.484;entryDx=0;entryDy=0;entryPerimeter=0;" parent="h92_oG6zmkIHJl_vDyYq-19" source="h92_oG6zmkIHJl_vDyYq-49" target="h92_oG6zmkIHJl_vDyYq-53" edge="1">
          <mxGeometry relative="1" as="geometry">
            <mxPoint x="341.99999999999955" y="400" as="targetPoint" />
            <mxPoint x="412" y="295" as="sourcePoint" />
            <Array as="points">
              <mxPoint x="125.99999999999955" y="403" />
            </Array>
          </mxGeometry>
        </mxCell>
        <mxCell id="a8-X8E4taNQqwArWPGs_-1" value="" style="swimlane;childLayout=stackLayout;resizeParent=1;resizeParentMax=0;startSize=20;html=1;fontSize=16;" vertex="1" parent="1">
          <mxGeometry x="30.000000000000455" y="368" width="663" height="855" as="geometry" />
        </mxCell>
        <mxCell id="a8-X8E4taNQqwArWPGs_-2" value="Admin" style="swimlane;startSize=20;html=1;fontSize=16;" vertex="1" parent="a8-X8E4taNQqwArWPGs_-1">
          <mxGeometry y="20" width="338" height="835" as="geometry" />
        </mxCell>
        <mxCell id="a8-X8E4taNQqwArWPGs_-3" value="" style="ellipse;html=1;shape=startState;fillColor=#000000;strokeColor=#ff0000;fontSize=16;" vertex="1" parent="a8-X8E4taNQqwArWPGs_-2">
          <mxGeometry x="127.99999999999955" y="37" width="30" height="30" as="geometry" />
        </mxCell>
        <mxCell id="a8-X8E4taNQqwArWPGs_-4" value="" style="edgeStyle=orthogonalEdgeStyle;html=1;verticalAlign=bottom;endArrow=open;endSize=8;strokeColor=#ff0000;rounded=0;fontSize=12;curved=1;" edge="1" parent="a8-X8E4taNQqwArWPGs_-2">
          <mxGeometry relative="1" as="geometry">
            <mxPoint x="140.99999999999955" y="105" as="targetPoint" />
            <mxPoint x="140.99999999999955" y="67" as="sourcePoint" />
            <Array as="points">
              <mxPoint x="141" y="85" />
              <mxPoint x="141" y="85" />
            </Array>
          </mxGeometry>
        </mxCell>
        <mxCell id="a8-X8E4taNQqwArWPGs_-5" value="memilih menu penyakit" style="rounded=1;whiteSpace=wrap;html=1;arcSize=40;fontColor=#000000;fillColor=#ffffc0;strokeColor=#ff0000;fontSize=16;" vertex="1" parent="a8-X8E4taNQqwArWPGs_-2">
          <mxGeometry x="74.99999999999955" y="104" width="120" height="40" as="geometry" />
        </mxCell>
        <mxCell id="a8-X8E4taNQqwArWPGs_-7" value="Tambah" style="rounded=1;whiteSpace=wrap;html=1;arcSize=40;fontColor=#000000;fillColor=#ffffc0;strokeColor=#ff0000;fontSize=16;" vertex="1" parent="a8-X8E4taNQqwArWPGs_-2">
          <mxGeometry x="27" y="298" width="79" height="34" as="geometry" />
        </mxCell>
        <mxCell id="a8-X8E4taNQqwArWPGs_-23" value="pilih aksi" style="rhombus;whiteSpace=wrap;html=1;fontSize=16;fillColor=#ffffc0;strokeColor=#ff0000;fontColor=#000000;rounded=1;arcSize=40;" vertex="1" parent="a8-X8E4taNQqwArWPGs_-2">
          <mxGeometry x="110.99999999999955" y="201" width="80" height="80" as="geometry" />
        </mxCell>
        <mxCell id="a8-X8E4taNQqwArWPGs_-26" value="hapus" style="rounded=1;whiteSpace=wrap;html=1;arcSize=40;fontColor=#000000;fillColor=#ffffc0;strokeColor=#ff0000;fontSize=16;" vertex="1" parent="a8-X8E4taNQqwArWPGs_-2">
          <mxGeometry x="215" y="303" width="79" height="34" as="geometry" />
        </mxCell>
        <mxCell id="a8-X8E4taNQqwArWPGs_-25" value="edit" style="rounded=1;whiteSpace=wrap;html=1;arcSize=40;fontColor=#000000;fillColor=#ffffc0;strokeColor=#ff0000;fontSize=16;" vertex="1" parent="a8-X8E4taNQqwArWPGs_-2">
          <mxGeometry x="121" y="301" width="79" height="34" as="geometry" />
        </mxCell>
        <mxCell id="a8-X8E4taNQqwArWPGs_-27" value="" style="endArrow=open;endFill=1;endSize=12;html=1;rounded=0;fontSize=12;fillColor=#ffe6cc;strokeColor=#e02d00;exitX=0;exitY=0.5;exitDx=0;exitDy=0;entryX=0.5;entryY=0;entryDx=0;entryDy=0;edgeStyle=orthogonalEdgeStyle;" edge="1" parent="a8-X8E4taNQqwArWPGs_-2" source="a8-X8E4taNQqwArWPGs_-23" target="a8-X8E4taNQqwArWPGs_-7">
          <mxGeometry width="160" relative="1" as="geometry">
            <mxPoint x="205" y="134" as="sourcePoint" />
            <mxPoint x="417.99999999999955" y="134" as="targetPoint" />
          </mxGeometry>
        </mxCell>
        <mxCell id="a8-X8E4taNQqwArWPGs_-29" value="" style="endArrow=open;endFill=1;endSize=12;html=1;rounded=0;fontSize=12;fillColor=#ffe6cc;strokeColor=#e02d00;exitX=1;exitY=0.5;exitDx=0;exitDy=0;entryX=0.5;entryY=0;entryDx=0;entryDy=0;edgeStyle=orthogonalEdgeStyle;" edge="1" parent="a8-X8E4taNQqwArWPGs_-2" source="a8-X8E4taNQqwArWPGs_-23" target="a8-X8E4taNQqwArWPGs_-26">
          <mxGeometry width="160" relative="1" as="geometry">
            <mxPoint x="121" y="251" as="sourcePoint" />
            <mxPoint x="77" y="308" as="targetPoint" />
          </mxGeometry>
        </mxCell>
        <mxCell id="a8-X8E4taNQqwArWPGs_-32" value="" style="endArrow=open;endFill=1;endSize=12;html=1;rounded=0;fontSize=12;fillColor=#ffe6cc;strokeColor=#e02d00;edgeStyle=orthogonalEdgeStyle;exitX=0.5;exitY=1;exitDx=0;exitDy=0;entryX=0;entryY=0.5;entryDx=0;entryDy=0;" edge="1" parent="a8-X8E4taNQqwArWPGs_-2">
          <mxGeometry width="160" relative="1" as="geometry">
            <mxPoint x="165" y="337" as="sourcePoint" />
            <mxPoint x="411" y="354.5" as="targetPoint" />
            <Array as="points">
              <mxPoint x="165" y="355" />
            </Array>
          </mxGeometry>
        </mxCell>
        <mxCell id="a8-X8E4taNQqwArWPGs_-35" value="input data penyakit" style="rounded=1;whiteSpace=wrap;html=1;arcSize=40;fontColor=#000000;fillColor=#ffffc0;strokeColor=#ff0000;fontSize=16;" vertex="1" parent="a8-X8E4taNQqwArWPGs_-2">
          <mxGeometry x="83" y="494" width="120" height="58" as="geometry" />
        </mxCell>
        <mxCell id="a8-X8E4taNQqwArWPGs_-36" value="mengubah data penyakit" style="rounded=1;whiteSpace=wrap;html=1;arcSize=40;fontColor=#000000;fillColor=#ffffc0;strokeColor=#ff0000;fontSize=16;" vertex="1" parent="a8-X8E4taNQqwArWPGs_-2">
          <mxGeometry x="87" y="570" width="120" height="58" as="geometry" />
        </mxCell>
        <mxCell id="a8-X8E4taNQqwArWPGs_-45" value="" style="endArrow=none;endFill=0;endSize=12;html=1;rounded=0;fontSize=12;fillColor=#ffe6cc;strokeColor=#e02d00;exitX=0.5;exitY=1;exitDx=0;exitDy=0;edgeStyle=orthogonalEdgeStyle;" edge="1" parent="a8-X8E4taNQqwArWPGs_-2" source="a8-X8E4taNQqwArWPGs_-36">
          <mxGeometry width="160" relative="1" as="geometry">
            <mxPoint x="182.5" y="658" as="sourcePoint" />
            <mxPoint x="143.99999999999955" y="687" as="targetPoint" />
            <Array as="points">
              <mxPoint x="147" y="687" />
            </Array>
          </mxGeometry>
        </mxCell>
        <mxCell id="a8-X8E4taNQqwArWPGs_-8" value="sistem" style="swimlane;startSize=20;html=1;fontSize=16;" vertex="1" parent="a8-X8E4taNQqwArWPGs_-1">
          <mxGeometry x="338" y="20" width="325" height="835" as="geometry" />
        </mxCell>
        <mxCell id="a8-X8E4taNQqwArWPGs_-9" value="menampilkan halaman tabel penyakit" style="rounded=1;whiteSpace=wrap;html=1;arcSize=40;fontColor=#000000;fillColor=#ffffc0;strokeColor=#ff0000;fontSize=16;" vertex="1" parent="a8-X8E4taNQqwArWPGs_-8">
          <mxGeometry x="71" y="99" width="120" height="56" as="geometry" />
        </mxCell>
        <mxCell id="a8-X8E4taNQqwArWPGs_-10" value="" style="endArrow=open;endFill=1;endSize=12;html=1;rounded=0;fontSize=12;curved=1;fillColor=#ffe6cc;strokeColor=#e02d00;exitX=1;exitY=0.5;exitDx=0;exitDy=0;" edge="1" parent="a8-X8E4taNQqwArWPGs_-8" source="a8-X8E4taNQqwArWPGs_-5">
          <mxGeometry width="160" relative="1" as="geometry">
            <mxPoint x="-72.00000000000045" y="128" as="sourcePoint" />
            <mxPoint x="69.99999999999955" y="124" as="targetPoint" />
          </mxGeometry>
        </mxCell>
        <mxCell id="a8-X8E4taNQqwArWPGs_-11" value="Menampilkan alert sudah dihapus" style="rounded=1;whiteSpace=wrap;html=1;arcSize=40;fontColor=#000000;fillColor=#ffffc0;strokeColor=#ff0000;fontSize=16;" vertex="1" parent="a8-X8E4taNQqwArWPGs_-8">
          <mxGeometry x="71" y="250" width="120" height="58" as="geometry" />
        </mxCell>
        <mxCell id="a8-X8E4taNQqwArWPGs_-15" value="menampilkan form edit" style="rounded=1;whiteSpace=wrap;html=1;arcSize=40;fontColor=#000000;fillColor=#ffffc0;strokeColor=#ff0000;fontSize=16;" vertex="1" parent="a8-X8E4taNQqwArWPGs_-8">
          <mxGeometry x="68.5" y="325" width="125" height="55" as="geometry" />
        </mxCell>
        <mxCell id="a8-X8E4taNQqwArWPGs_-30" value="menampilkan form tambah" style="rounded=1;whiteSpace=wrap;html=1;arcSize=40;fontColor=#000000;fillColor=#ffffc0;strokeColor=#ff0000;fontSize=16;" vertex="1" parent="a8-X8E4taNQqwArWPGs_-8">
          <mxGeometry x="68.5" y="394" width="125" height="55" as="geometry" />
        </mxCell>
        <mxCell id="a8-X8E4taNQqwArWPGs_-48" value="" style="edgeStyle=orthogonalEdgeStyle;rounded=0;orthogonalLoop=1;jettySize=auto;html=1;endArrow=open;endFill=0;fillColor=#f8cecc;strokeColor=#b85450;" edge="1" parent="a8-X8E4taNQqwArWPGs_-8" source="a8-X8E4taNQqwArWPGs_-46">
          <mxGeometry relative="1" as="geometry">
            <mxPoint x="130.99999999999955" y="776" as="targetPoint" />
          </mxGeometry>
        </mxCell>
        <mxCell id="a8-X8E4taNQqwArWPGs_-46" value="mempilkan data tabel penyakit" style="rounded=1;whiteSpace=wrap;html=1;arcSize=40;fontColor=#000000;fillColor=#ffffc0;strokeColor=#ff0000;fontSize=16;" vertex="1" parent="a8-X8E4taNQqwArWPGs_-8">
          <mxGeometry x="71" y="658" width="120" height="58" as="geometry" />
        </mxCell>
        <mxCell id="a8-X8E4taNQqwArWPGs_-49" value="" style="ellipse;html=1;shape=endState;fillColor=#000000;strokeColor=#ff0000;" vertex="1" parent="a8-X8E4taNQqwArWPGs_-8">
          <mxGeometry x="115.99999999999955" y="777" width="30" height="30" as="geometry" />
        </mxCell>
        <mxCell id="a8-X8E4taNQqwArWPGs_-19" value="" style="html=1;verticalAlign=bottom;endArrow=open;endSize=8;strokeColor=#ff0000;rounded=0;fontSize=12;exitX=0.5;exitY=1;exitDx=0;exitDy=0;entryX=0.5;entryY=0;entryDx=0;entryDy=0;" edge="1" parent="a8-X8E4taNQqwArWPGs_-1" source="a8-X8E4taNQqwArWPGs_-9" target="a8-X8E4taNQqwArWPGs_-23">
          <mxGeometry relative="1" as="geometry">
            <mxPoint x="180.99999999999955" y="220" as="targetPoint" />
            <mxPoint x="131" y="250" as="sourcePoint" />
            <Array as="points">
              <mxPoint x="468.99999999999955" y="202" />
              <mxPoint x="150.99999999999955" y="202" />
            </Array>
          </mxGeometry>
        </mxCell>
        <mxCell id="a8-X8E4taNQqwArWPGs_-31" value="" style="endArrow=open;endFill=1;endSize=12;html=1;rounded=0;fontSize=12;fillColor=#ffe6cc;strokeColor=#e02d00;exitX=1;exitY=0.5;exitDx=0;exitDy=0;edgeStyle=orthogonalEdgeStyle;" edge="1" parent="a8-X8E4taNQqwArWPGs_-1" source="a8-X8E4taNQqwArWPGs_-26" target="a8-X8E4taNQqwArWPGs_-11">
          <mxGeometry width="160" relative="1" as="geometry">
            <mxPoint x="121" y="271" as="sourcePoint" />
            <mxPoint x="77" y="328" as="targetPoint" />
            <Array as="points">
              <mxPoint x="317" y="340" />
              <mxPoint x="317" y="299" />
            </Array>
          </mxGeometry>
        </mxCell>
        <mxCell id="a8-X8E4taNQqwArWPGs_-34" value="" style="endArrow=open;endFill=1;endSize=12;html=1;rounded=0;fontSize=12;fillColor=#ffe6cc;strokeColor=#e02d00;edgeStyle=orthogonalEdgeStyle;exitX=0.5;exitY=1;exitDx=0;exitDy=0;entryX=0;entryY=0.5;entryDx=0;entryDy=0;" edge="1" parent="a8-X8E4taNQqwArWPGs_-1" source="a8-X8E4taNQqwArWPGs_-7" target="a8-X8E4taNQqwArWPGs_-30">
          <mxGeometry width="160" relative="1" as="geometry">
            <mxPoint x="175" y="367" as="sourcePoint" />
            <mxPoint x="421" y="384.5" as="targetPoint" />
            <Array as="points">
              <mxPoint x="67" y="442" />
              <mxPoint x="407" y="442" />
            </Array>
          </mxGeometry>
        </mxCell>
        <mxCell id="a8-X8E4taNQqwArWPGs_-38" value="" style="endArrow=open;endFill=1;endSize=12;html=1;rounded=0;fontSize=12;fillColor=#ffe6cc;strokeColor=#e02d00;edgeStyle=orthogonalEdgeStyle;exitX=0.5;exitY=1;exitDx=0;exitDy=0;entryX=1;entryY=0.5;entryDx=0;entryDy=0;" edge="1" parent="a8-X8E4taNQqwArWPGs_-1" source="a8-X8E4taNQqwArWPGs_-30" target="a8-X8E4taNQqwArWPGs_-35">
          <mxGeometry width="160" relative="1" as="geometry">
            <mxPoint x="77" y="362" as="sourcePoint" />
            <mxPoint x="417" y="452" as="targetPoint" />
            <Array as="points">
              <mxPoint x="469" y="543" />
            </Array>
          </mxGeometry>
        </mxCell>
        <mxCell id="a8-X8E4taNQqwArWPGs_-39" value="" style="endArrow=open;endFill=1;endSize=12;html=1;rounded=0;fontSize=12;fillColor=#ffe6cc;strokeColor=#e02d00;edgeStyle=orthogonalEdgeStyle;exitX=1;exitY=0.5;exitDx=0;exitDy=0;entryX=1;entryY=0.5;entryDx=0;entryDy=0;" edge="1" parent="a8-X8E4taNQqwArWPGs_-1" source="a8-X8E4taNQqwArWPGs_-15" target="a8-X8E4taNQqwArWPGs_-36">
          <mxGeometry width="160" relative="1" as="geometry">
            <mxPoint x="479" y="479" as="sourcePoint" />
            <mxPoint x="213" y="553" as="targetPoint" />
            <Array as="points">
              <mxPoint x="551" y="372" />
              <mxPoint x="551" y="619" />
            </Array>
          </mxGeometry>
        </mxCell>
        <mxCell id="a8-X8E4taNQqwArWPGs_-41" value="" style="endArrow=open;endFill=1;endSize=12;html=1;rounded=0;fontSize=12;fillColor=#ffe6cc;strokeColor=#e02d00;edgeStyle=orthogonalEdgeStyle;exitX=0;exitY=0.5;exitDx=0;exitDy=0;entryX=0;entryY=0.5;entryDx=0;entryDy=0;" edge="1" parent="a8-X8E4taNQqwArWPGs_-1">
          <mxGeometry width="160" relative="1" as="geometry">
            <mxPoint x="83" y="544" as="sourcePoint" />
            <mxPoint x="409" y="705" as="targetPoint" />
            <Array as="points">
              <mxPoint x="64" y="544" />
              <mxPoint x="64" y="705" />
            </Array>
          </mxGeometry>
        </mxCell>
        <mxCell id="a8-X8E4taNQqwArWPGs_-28" value="" style="edgeStyle=orthogonalEdgeStyle;html=1;verticalAlign=bottom;endArrow=open;endSize=8;strokeColor=#ff0000;rounded=0;fontSize=12;curved=1;" edge="1" parent="1">
          <mxGeometry relative="1" as="geometry">
            <mxPoint x="181" y="687" as="targetPoint" />
            <mxPoint x="181" y="670" as="sourcePoint" />
            <Array as="points">
              <mxPoint x="181.00000000000045" y="667" />
              <mxPoint x="181.00000000000045" y="667" />
            </Array>
          </mxGeometry>
        </mxCell>
        <mxCell id="a8-X8E4taNQqwArWPGs_-40" value="" style="endArrow=open;endFill=1;endSize=12;html=1;rounded=0;fontSize=12;fillColor=#ffe6cc;strokeColor=#e02d00;edgeStyle=orthogonalEdgeStyle;exitX=1;exitY=0.5;exitDx=0;exitDy=0;" edge="1" parent="1" source="a8-X8E4taNQqwArWPGs_-11">
          <mxGeometry width="160" relative="1" as="geometry">
            <mxPoint x="572.0000000000005" y="751" as="sourcePoint" />
            <mxPoint x="511" y="1044" as="targetPoint" />
            <Array as="points">
              <mxPoint x="614" y="667" />
              <mxPoint x="614" y="1011" />
              <mxPoint x="511" y="1011" />
            </Array>
          </mxGeometry>
        </mxCell>
      </root>
    </mxGraphModel>
  </diagram>
</mxfile>
